<svg xmlns="http://www.w3.org/2000/svg" width="125.969" height="44.406" viewBox="0 0 125.969 44.406">
  <defs>
    <style>
      .cls-1 {
        fill: #c85610;
        fill-rule: evenodd;
      }
    </style>
  </defs>
  <path id="FileS" class="cls-1" d="M19.589,65.123V45.612H39.745V40.543H19.589v-13.3H42.88V22.174H13.905V65.123h5.684ZM53.04,35.615V30.764H48.821v4.852H53.04Zm0,29.508V40.233H48.821V65.123H53.04Zm12.369,0V22.174H60.136V65.123h5.274ZM91.63,59.967a8.069,8.069,0,0,1-4.951,1.523,8.632,8.632,0,0,1-6.5-2.725q-2.608-2.725-2.9-7.852h23.2q0.03-.937.03-1.406,0-7.7-3.956-11.953a13.3,13.3,0,0,0-10.2-4.248,13.686,13.686,0,0,0-10.488,4.336q-4.043,4.336-4.043,12.188,0,7.588,4,11.792t10.825,4.2a14.357,14.357,0,0,0,8.906-2.637,13.3,13.3,0,0,0,4.776-7.412L94.882,55.1A10.116,10.116,0,0,1,91.63,59.967ZM80.306,40.074a8.378,8.378,0,0,1,6.108-2.432,8.083,8.083,0,0,1,6.533,3.047,10.542,10.542,0,0,1,1.992,5.889H77.567A9.624,9.624,0,0,1,80.306,40.074Zm27.745,18.97a13.678,13.678,0,0,0,6.181,5.112,24.72,24.72,0,0,0,9.771,1.7,19.649,19.649,0,0,0,8.276-1.685,12.928,12.928,0,0,0,5.64-4.717,11.687,11.687,0,0,0,1.963-6.46,10.675,10.675,0,0,0-1.787-6.108,13.03,13.03,0,0,0-5.538-4.38,56.749,56.749,0,0,0-9.506-2.739q-6.93-1.567-8.57-3.062a4.885,4.885,0,0,1-1.67-3.809,5.666,5.666,0,0,1,2.359-4.556q2.358-1.89,7.514-1.89,4.952,0,7.486,2.08a8.8,8.8,0,0,1,2.973,6.152l5.45-.41a13.009,13.009,0,0,0-2.11-6.768,12.152,12.152,0,0,0-5.61-4.526,21.533,21.533,0,0,0-8.423-1.538,20.452,20.452,0,0,0-7.881,1.465,11.436,11.436,0,0,0-5.391,4.292,10.919,10.919,0,0,0-1.845,6.079,9.79,9.79,0,0,0,1.509,5.347,11.613,11.613,0,0,0,4.585,4,39.037,39.037,0,0,0,8.291,2.681,75.763,75.763,0,0,1,7.646,2.095,8.681,8.681,0,0,1,3.867,2.534,5.592,5.592,0,0,1,1.172,3.53,6.146,6.146,0,0,1-1.216,3.677,7.961,7.961,0,0,1-3.706,2.651,15.792,15.792,0,0,1-5.742.967,16.364,16.364,0,0,1-6.592-1.274,9.671,9.671,0,0,1-4.321-3.34,11.836,11.836,0,0,1-1.773-5.288l-5.361.469A14.486,14.486,0,0,0,108.051,59.044Z" transform="translate(-13.906 -21.438)"/>
</svg>
